<?xml version="1.0" standalone="no"?>
<!DOCTYPE svg PUBLIC "-//W3C//DTD SVG 20010904//EN"
 "http://www.w3.org/TR/2001/REC-SVG-20010904/DTD/svg10.dtd">
<svg version="1.0" xmlns="http://www.w3.org/2000/svg"
 width="161.000000pt" height="161.000000pt" viewBox="0 0 161.000000 161.000000"
 preserveAspectRatio="xMidYMid meet">
<metadata>
Created by potrace 1.14, written by Peter Selinger 2001-2017
</metadata>
<g transform="translate(0.000000,161.000000) scale(0.100000,-0.100000)"
fill="#000000" stroke="none">
<path d="M660 1290 c-83 -28 -142 -65 -202 -124 -226 -224 -188 -606 79 -789
96 -66 256 -95 378 -67 121 27 243 114 309 219 29 46 71 156 57 146 -5 -2 -12
-17 -15 -31 -24 -95 -178 -250 -278 -279 -22 -7 -22 -6 2 11 47 34 61 49 96
96 39 52 71 137 77 201 3 32 9 43 23 45 31 6 36 18 7 17 -22 0 -27 5 -30 30
-2 17 -8 44 -12 60 -7 23 -8 16 -7 -33 l1 -64 -49 -18 c-27 -11 -65 -32 -85
-48 l-36 -29 -2 48 c-2 26 -9 66 -17 88 -15 45 -10 53 68 105 21 14 34 26 29
26 -6 0 -34 -16 -63 -36 -28 -19 -53 -34 -54 -32 -2 2 -16 23 -33 48 -17 25
-41 54 -54 65 -19 16 -18 14 4 -14 16 -18 37 -51 48 -73 l20 -39 -53 -59 -53
-58 -59 58 -59 58 28 49 c15 26 37 59 49 73 l21 25 -23 -20 c-13 -11 -37 -41
-54 -67 -17 -26 -33 -48 -36 -48 -2 0 -34 16 -70 37 -76 41 -73 35 9 -20 l56
-38 -14 -41 c-12 -36 -20 -81 -22 -125 -1 -7 -18 -1 -43 16 -24 15 -61 35 -83
43 l-40 16 1 69 c1 48 -1 59 -6 38 -4 -16 -8 -47 -9 -67 l-1 -38 -47 -2 -48
-1 45 -6 44 -6 11 -60 c19 -108 77 -199 170 -268 31 -23 34 -28 15 -22 -98 29
-200 124 -253 235 -69 145 -69 287 0 430 62 129 186 230 318 260 141 32 299
-5 402 -92 l38 -32 -29 31 c-34 38 -121 85 -195 107 -75 22 -202 20 -271 -4z
m120 -593 c17 -27 17 -31 1 -60 -17 -35 -23 -177 -8 -232 l8 -30 -21 25 c-50
60 -101 199 -95 255 12 97 16 118 21 127 7 11 68 -44 94 -85z m167 27 c8 -69
8 -73 0 -132 -8 -53 -42 -140 -68 -175 -12 -15 -14 -5 -14 75 0 68 -5 106 -19
140 l-19 48 26 32 c70 92 84 93 94 12z m197 -51 c-12 -68 -45 -142 -84 -191
-37 -48 -124 -113 -167 -126 -21 -7 -20 -3 12 46 20 29 43 78 51 108 9 30 23
69 31 87 20 40 114 109 156 112 4 1 5 -16 1 -36z m-568 -24 c55 -37 62 -48 80
-115 8 -33 32 -87 54 -121 36 -58 37 -61 15 -53 -112 43 -226 182 -242 295
l-6 46 29 -13 c16 -7 47 -24 70 -39z m261 -171 c-7 -106 -20 -127 -35 -52 -15
73 -15 128 0 179 l11 40 14 -45 c10 -30 13 -71 10 -122z"/>
<path d="M800 1211 c0 -6 4 -13 10 -16 6 -3 7 1 4 9 -7 18 -14 21 -14 7z"/>
<path d="M792 1148 c2 -12 10 -23 18 -26 12 -4 13 -2 3 9 -18 18 -16 27 5 32
12 3 11 5 -6 6 -19 1 -23 -4 -20 -21z"/>
<path d="M780 1081 c-7 -15 -6 -23 6 -35 8 -9 21 -16 27 -16 7 0 4 5 -5 11
-25 14 -22 38 5 49 l22 9 -22 0 c-12 1 -27 -8 -33 -18z"/>
</g>
</svg>
